<?xml version="1.0" encoding="UTF-8"?>
<svg id="_레이어_2" data-name="레이어 2" xmlns="http://www.w3.org/2000/svg" xmlns:xlink="http://www.w3.org/1999/xlink" viewBox="0 0 1920 1080">
  <defs>
    <style>
      .cls-1, .cls-2 {
        fill: none;
      }

      .cls-3 {
        fill: #227cff;
      }

      .cls-4 {
        fill: #ff0;
      }

      .cls-2 {
        stroke: #0a0a0a;
        stroke-miterlimit: 10;
        stroke-width: 1.72px;
      }

      .cls-5 {
        fill: #f2f2f2;
      }

      .cls-6 {
        fill: #0a0a0a;
      }

      .cls-7 {
        clip-path: url(#clippath);
      }
    </style>
    <clipPath id="clippath">
      <rect class="cls-1" x="181.43" width="1626.55" height="1080"/>
    </clipPath>
  </defs>
  <g id="Work">
    <g>
      <rect class="cls-5" width="1920" height="1080"/>
      <g>
        <circle class="cls-3" cx="1679.4" cy="880.43" r="59.81"/>
        <path class="cls-6" d="M1713.35,805.14c-5.14,12.55-10.93,23.87-18.55,37.52l14.39-2.21c-12.75,23.11-27.5,45.05-44.09,65.57l14.46-2.22c-18.8,23.34-39.84,44.76-62.85,63.95,37.17-24.18,63.26-49.33,92.3-75.66l-16.71,2.56c24.03-21.85,46.85-44.98,68.39-69.3l-22.1,3.39c10.89-12.33,20.91-24.28,30.11-35.66l-55.34,12.05Z"/>
      </g>
      <g class="cls-7">
        <path class="cls-4" d="M1036.15-20.65c-38.28,93.45-81.37,177.77-138.14,279.42l107.16-16.43c-94.95,172.09-204.79,335.46-328.29,488.29l107.68-16.51c-139.96,173.79-296.71,333.29-468.05,476.23,276.77-180.08,471.07-367.33,687.29-563.39l-124.4,19.07c178.91-162.71,348.9-334.99,509.26-516.04l-164.57,25.23c81.12-91.85,155.67-180.81,224.18-265.57l-412.13,89.69Z"/>
      </g>
      <g>
        <path class="cls-6" d="M157.78,462.19h7.78v52.03h28.69v7.36h-36.47v-59.39Z"/>
        <path class="cls-6" d="M204.45,468.54c-2.84,0-5.19-2.26-5.19-5.1s2.34-5.1,5.19-5.1,5.02,2.34,5.02,5.1-2.17,5.1-5.02,5.1ZM200.77,479.75h7.19v41.82h-7.19v-41.82Z"/>
        <path class="cls-6" d="M237.74,539.9c-9.03,0-16.06-3.85-19.66-8.53l5.02-5.02c3.35,4.27,8.2,7.03,14.64,7.03,7.11,0,13.97-4.43,13.97-14.47v-4.77c-2.84,4.18-8.37,7.36-14.56,7.36-11.63,0-20.49-9.37-20.49-21.33s8.87-21.25,20.49-21.25c6.19,0,11.71,3.09,14.56,7.28v-6.44h7.19v39.4c0,13.97-9.2,20.74-21.16,20.74ZM238.16,514.8c8.37,0,14.14-6.19,14.14-14.64s-5.77-14.64-14.14-14.64-14.14,6.27-14.14,14.64,5.77,14.64,14.14,14.64Z"/>
        <path class="cls-6" d="M270.78,458.84h7.19v27.35c2.84-4.94,7.86-7.28,13.3-7.28,9.37,0,15.81,6.52,15.81,16.9v25.76h-7.11v-24.68c0-7.03-4.01-11.38-9.87-11.38-6.78,0-12.13,5.52-12.13,15.31v20.74h-7.19v-62.74Z"/>
        <path class="cls-6" d="M334.1,521.99c-7.28,0-12.8-4.1-12.8-12.8v-22.84h-8.87v-6.61h8.87v-11.63h7.19v11.63h12.05v6.61h-12.05v21.92c0,5.35,2.43,7.11,6.94,7.11,1.76,0,3.76-.33,5.1-.84v6.44c-1.76.59-3.85,1-6.44,1Z"/>
        <path class="cls-6" d="M348.07,479.75h7.19v6.44c2.84-4.94,7.86-7.28,13.3-7.28,9.37,0,15.81,6.52,15.81,16.9v25.76h-7.11v-24.68c0-7.03-4.01-11.38-9.87-11.38-6.78,0-12.13,5.52-12.13,15.31v20.74h-7.19v-41.82Z"/>
        <path class="cls-6" d="M399.35,468.54c-2.84,0-5.19-2.26-5.19-5.1s2.34-5.1,5.19-5.1,5.02,2.34,5.02,5.1-2.17,5.1-5.02,5.1ZM395.67,479.75h7.19v41.82h-7.19v-41.82Z"/>
        <path class="cls-6" d="M414.82,479.75h7.19v6.44c2.84-4.94,7.86-7.28,13.3-7.28,9.37,0,15.81,6.52,15.81,16.9v25.76h-7.11v-24.68c0-7.03-4.01-11.38-9.87-11.38-6.78,0-12.13,5.52-12.13,15.31v20.74h-7.19v-41.82Z"/>
        <path class="cls-6" d="M480.23,539.9c-9.03,0-16.06-3.85-19.66-8.53l5.02-5.02c3.35,4.27,8.2,7.03,14.64,7.03,7.11,0,13.97-4.43,13.97-14.47v-4.77c-2.84,4.18-8.37,7.36-14.56,7.36-11.63,0-20.49-9.37-20.49-21.33s8.87-21.25,20.49-21.25c6.19,0,11.71,3.09,14.56,7.28v-6.44h7.19v39.4c0,13.97-9.2,20.74-21.16,20.74ZM480.65,514.8c8.37,0,14.14-6.19,14.14-14.64s-5.77-14.64-14.14-14.64-14.14,6.27-14.14,14.64,5.77,14.64,14.14,14.64Z"/>
        <path class="cls-6" d="M511.93,494.56h21.33v7.19h-21.33v-7.19Z"/>
        <path class="cls-6" d="M544.97,462.19h34.55v7.36h-26.77v17.98h21.16v7.36h-21.16v26.68h-7.78v-59.39Z"/>
        <path class="cls-6" d="M600.68,478.92c6.27,0,11.96,3.26,14.72,7.28v-6.44h7.19v41.82h-7.19v-6.44c-2.76,4.02-8.45,7.28-14.72,7.28-11.71,0-20.49-9.79-20.49-21.75s8.78-21.75,20.49-21.75ZM601.77,485.52c-8.45,0-14.3,6.69-14.3,15.14s5.86,15.14,14.3,15.14,14.22-6.69,14.22-15.14-5.77-15.14-14.22-15.14Z"/>
        <path class="cls-6" d="M647.11,522.41c-7.44,0-13.89-3.18-16.39-9.7l5.86-3.26c1.5,4.27,6.02,6.61,10.62,6.61,4.01,0,7.28-2.01,7.28-5.6,0-3.01-1.84-4.85-7.28-6.52l-4.18-1.34c-6.86-2.01-10.46-6.36-10.46-12.21.08-7.19,6.36-11.46,14.39-11.46,6.19,0,11.04,2.59,13.8,7.28l-5.35,3.68c-1.84-2.68-4.68-4.77-8.7-4.77-3.51,0-6.94,1.92-6.94,5.02,0,2.51,1.34,4.6,5.94,6.02l4.6,1.42c7.19,2.17,11.38,5.94,11.38,12.3,0,8.03-6.19,12.55-14.55,12.55Z"/>
        <path class="cls-6" d="M686.25,521.99c-7.28,0-12.8-4.1-12.8-12.8v-22.84h-8.87v-6.61h8.87v-11.63h7.19v11.63h12.04v6.61h-12.04v21.92c0,5.35,2.43,7.11,6.94,7.11,1.76,0,3.76-.33,5.1-.84v6.44c-1.76.59-3.85,1-6.44,1Z"/>
        <path class="cls-6" d="M700.56,533.54h-4.77l5.6-11.96c-2.01-1-3.43-3.09-3.43-5.6,0-3.35,2.76-6.27,6.19-6.27s6.19,2.93,6.19,6.27c0,1.42-.5,2.68-1.17,3.76l-8.62,13.8Z"/>
        <path class="cls-6" d="M766.14,522.58c-17.06,0-30.7-13.47-30.7-30.7s13.63-30.7,30.7-30.7,30.7,13.47,30.7,30.7-13.55,30.7-30.7,30.7ZM766.14,515.22c13.05,0,22.92-10.29,22.92-23.34s-9.87-23.34-22.92-23.34-22.84,10.29-22.84,23.34,9.87,23.34,22.84,23.34Z"/>
        <path class="cls-6" d="M805.7,479.75h7.19v6.44c2.84-4.94,7.86-7.28,13.3-7.28,9.37,0,15.81,6.52,15.81,16.9v25.76h-7.11v-24.68c0-7.03-4.01-11.38-9.87-11.38-6.78,0-12.13,5.52-12.13,15.31v20.74h-7.19v-41.82Z"/>
        <path class="cls-6" d="M851.96,494.56h21.33v7.19h-21.33v-7.19Z"/>
        <path class="cls-6" d="M885,462.19h17.06c18.24,0,31.62,12.71,31.62,29.7s-13.38,29.7-31.62,29.7h-17.06v-59.39ZM902.06,514.3c14.3,0,23.76-9.54,23.76-22.42s-9.45-22.42-23.76-22.42h-9.29v44.84h9.29Z"/>
        <path class="cls-6" d="M961.03,478.92c10.96,0,19.83,7.61,19.91,21,0,.75,0,1.25-.08,2.17h-34.3c.25,7.86,6.19,13.72,14.47,13.72,6.44,0,10.46-2.84,13.05-7.28l5.69,3.93c-3.76,6.11-10.12,9.95-18.82,9.95-12.97,0-21.67-9.45-21.67-21.75s9.03-21.75,21.75-21.75ZM947.07,496.23h26.52c-1-6.86-6.44-10.96-12.8-10.96s-12.38,4.02-13.72,10.96Z"/>
        <path class="cls-6" d="M982.53,479.75h8.03l14.3,31.62,14.3-31.62h8.03l-19.32,41.82h-6.02l-19.32-41.82Z"/>
        <path class="cls-6" d="M1036.48,468.54c-2.84,0-5.19-2.26-5.19-5.1s2.34-5.1,5.19-5.1,5.02,2.34,5.02,5.1-2.17,5.1-5.02,5.1ZM1032.8,479.75h7.19v41.82h-7.19v-41.82Z"/>
        <path class="cls-6" d="M1070.61,522.41c-12.63,0-21.92-9.62-21.92-21.75s9.28-21.75,21.92-21.75c8.62,0,15.64,4.52,19.32,11.21l-6.27,3.51c-2.34-4.77-7.03-8.03-13.05-8.03-8.7,0-14.64,6.69-14.64,15.06s5.94,15.06,14.64,15.06c6.02,0,10.71-3.26,13.05-8.03l6.27,3.51c-3.68,6.69-10.71,11.21-19.32,11.21Z"/>
        <path class="cls-6" d="M1116.03,478.92c10.96,0,19.83,7.61,19.91,21,0,.75,0,1.25-.08,2.17h-34.3c.25,7.86,6.19,13.72,14.47,13.72,6.44,0,10.46-2.84,13.05-7.28l5.69,3.93c-3.76,6.11-10.12,9.95-18.82,9.95-12.97,0-21.67-9.45-21.67-21.75s9.03-21.75,21.75-21.75ZM1102.06,496.23h26.52c-1-6.86-6.44-10.96-12.8-10.96s-12.38,4.02-13.72,10.96Z"/>
        <path class="cls-6" d="M1173.33,469.55h-18.49v-7.36h44.58v7.36h-18.49v52.03h-7.61v-52.03Z"/>
        <path class="cls-6" d="M1219.08,469.55h-18.49v-7.36h44.58v7.36h-18.49v52.03h-7.61v-52.03Z"/>
        <path class="cls-6" d="M1253.71,507.19c3.18,5.02,8.03,8.11,14.72,8.11,6.11,0,10.96-3.35,10.96-8.87,0-4.77-3.01-7.95-8.53-10.04l-7.86-3.01c-9.29-3.43-13.47-8.28-13.47-16.4,0-9.7,7.95-15.81,18.57-15.81,7.44,0,13.63,3.35,17.32,8.11l-5.69,5.02c-3.01-3.6-6.69-5.86-11.79-5.86-5.86,0-10.71,3.26-10.71,8.2s2.93,7.28,8.95,9.54l7.19,2.76c8.78,3.35,13.8,8.36,13.8,17.15,0,10.12-7.86,16.48-18.9,16.48-9.79,0-17.73-4.6-20.83-10.71l6.27-4.68Z"/>
        <path class="cls-6" d="M1299.64,522.25c-3.43,0-6.19-2.84-6.19-6.27s2.76-6.27,6.19-6.27,6.19,2.93,6.19,6.27-2.76,6.27-6.19,6.27Z"/>
      </g>
      <g>
        <g>
          <path class="cls-6" d="M175.59,793.41c0,5.19-3.89,9.12-9.89,9.12h-5.03v10.5h-3.77v-28.77h8.79c6,0,9.89,3.97,9.89,9.16ZM171.86,793.41c0-3.2-2.19-5.63-6.16-5.63h-5.03v11.27h5.03c3.97,0,6.16-2.43,6.16-5.63Z"/>
          <path class="cls-6" d="M186.24,792.36c3.04,0,5.8,1.58,7.13,3.53v-3.12h3.49v20.26h-3.49v-3.12c-1.34,1.95-4.09,3.53-7.13,3.53-5.67,0-9.93-4.74-9.93-10.54s4.25-10.54,9.93-10.54ZM186.77,795.56c-4.09,0-6.93,3.24-6.93,7.34s2.84,7.34,6.93,7.34,6.89-3.24,6.89-7.34-2.8-7.34-6.89-7.34Z"/>
          <path class="cls-6" d="M201.8,792.76h3.48v3.93c.81-2.59,3.32-4.13,5.67-4.13.53,0,1.01.04,1.58.16v3.61c-.65-.24-1.22-.32-1.91-.32-2.55,0-5.35,2.23-5.35,6.97v10.05h-3.48v-20.26Z"/>
          <path class="cls-6" d="M222.67,792.36c3.04,0,5.79,1.58,7.13,3.53v-3.12h3.48v20.26h-3.48v-3.12c-1.34,1.95-4.09,3.53-7.13,3.53-5.67,0-9.93-4.74-9.93-10.54s4.26-10.54,9.93-10.54ZM223.2,795.56c-4.09,0-6.93,3.24-6.93,7.34s2.84,7.34,6.93,7.34,6.89-3.24,6.89-7.34-2.8-7.34-6.89-7.34Z"/>
          <path class="cls-6" d="M238.23,792.76h3.49v3.12c1.17-2.15,3.4-3.53,6.12-3.53,3.04,0,5.23,1.66,6.24,4.34,1.09-2.67,3.65-4.34,6.65-4.34,4.42,0,7.09,3.28,7.09,8.23v12.44h-3.49v-11.92c0-3.28-1.38-5.55-4.01-5.55-3.28,0-5.55,2.84-5.55,7.42v10.05h-3.48v-11.92c0-3.28-1.34-5.55-3.97-5.55-3.28,0-5.59,2.84-5.59,7.42v10.05h-3.49v-20.26Z"/>
          <path class="cls-6" d="M281.43,792.36c5.31,0,9.61,3.69,9.65,10.17,0,.36,0,.61-.04,1.05h-16.62c.12,3.81,3,6.65,7.01,6.65,3.12,0,5.07-1.38,6.32-3.53l2.76,1.9c-1.82,2.96-4.9,4.82-9.12,4.82-6.28,0-10.5-4.58-10.5-10.54s4.38-10.54,10.54-10.54ZM274.66,800.74h12.85c-.49-3.32-3.12-5.31-6.2-5.31s-6,1.95-6.65,5.31Z"/>
          <path class="cls-6" d="M301.98,813.23c-3.53,0-6.2-1.99-6.2-6.2v-11.06h-4.3v-3.2h4.3v-5.63h3.49v5.63h5.84v3.2h-5.84v10.62c0,2.59,1.18,3.44,3.36,3.44.85,0,1.82-.16,2.47-.41v3.12c-.85.28-1.86.49-3.12.49Z"/>
          <path class="cls-6" d="M316.61,792.36c5.31,0,9.61,3.69,9.65,10.17,0,.36,0,.61-.04,1.05h-16.62c.12,3.81,3,6.65,7.01,6.65,3.12,0,5.07-1.38,6.32-3.53l2.76,1.9c-1.82,2.96-4.9,4.82-9.12,4.82-6.28,0-10.5-4.58-10.5-10.54s4.38-10.54,10.54-10.54ZM309.84,800.74h12.85c-.49-3.32-3.12-5.31-6.2-5.31s-6,1.95-6.65,5.31Z"/>
          <path class="cls-6" d="M329.57,792.76h3.48v3.93c.81-2.59,3.32-4.13,5.67-4.13.53,0,1.01.04,1.58.16v3.61c-.65-.24-1.22-.32-1.91-.32-2.55,0-5.35,2.23-5.35,6.97v10.05h-3.48v-20.26Z"/>
          <path class="cls-6" d="M348.5,813.43c-3.61,0-6.73-1.54-7.94-4.7l2.84-1.58c.73,2.07,2.92,3.2,5.15,3.2,1.95,0,3.53-.97,3.53-2.72,0-1.46-.89-2.35-3.53-3.16l-2.03-.65c-3.32-.97-5.07-3.08-5.07-5.92.04-3.49,3.08-5.55,6.97-5.55,3,0,5.35,1.26,6.69,3.53l-2.59,1.78c-.89-1.3-2.27-2.31-4.21-2.31-1.7,0-3.36.93-3.36,2.43,0,1.22.65,2.23,2.88,2.92l2.23.69c3.49,1.05,5.51,2.88,5.51,5.96,0,3.89-3,6.08-7.05,6.08Z"/>
        </g>
        <g>
          <path class="cls-6" d="M642.94,793.41c0,5.19-3.89,9.12-9.89,9.12h-5.03v10.5h-3.77v-28.77h8.79c6,0,9.89,3.97,9.89,9.16ZM639.22,793.41c0-3.2-2.19-5.63-6.16-5.63h-5.03v11.27h5.03c3.97,0,6.16-2.43,6.16-5.63Z"/>
          <path class="cls-6" d="M645.58,792.76h3.49v3.93c.81-2.59,3.32-4.13,5.67-4.13.53,0,1.01.04,1.58.16v3.61c-.65-.24-1.22-.32-1.9-.32-2.55,0-5.35,2.23-5.35,6.97v10.05h-3.49v-20.26Z"/>
          <path class="cls-6" d="M667.05,813.43c-6.12,0-10.62-4.7-10.62-10.54s4.5-10.54,10.62-10.54,10.58,4.7,10.58,10.54-4.5,10.54-10.58,10.54ZM667.05,810.19c4.21,0,7.01-3.24,7.01-7.29s-2.8-7.29-7.01-7.29-7.05,3.24-7.05,7.29,2.84,7.29,7.05,7.29Z"/>
          <path class="cls-6" d="M689.63,821.9c-4.38,0-7.78-1.86-9.52-4.13l2.43-2.43c1.62,2.07,3.97,3.4,7.09,3.4,3.44,0,6.77-2.15,6.77-7.01v-2.31c-1.38,2.03-4.05,3.57-7.05,3.57-5.63,0-9.93-4.54-9.93-10.33s4.3-10.29,9.93-10.29c3,0,5.67,1.5,7.05,3.53v-3.12h3.48v19.09c0,6.77-4.46,10.05-10.25,10.05ZM689.83,809.74c4.05,0,6.85-3,6.85-7.09s-2.8-7.09-6.85-7.09-6.85,3.04-6.85,7.09,2.8,7.09,6.85,7.09Z"/>
          <path class="cls-6" d="M704.82,792.76h3.49v3.93c.81-2.59,3.32-4.13,5.67-4.13.53,0,1.01.04,1.58.16v3.61c-.65-.24-1.22-.32-1.9-.32-2.55,0-5.35,2.23-5.35,6.97v10.05h-3.49v-20.26Z"/>
          <path class="cls-6" d="M725.69,792.36c3.04,0,5.79,1.58,7.13,3.53v-3.12h3.48v20.26h-3.48v-3.12c-1.34,1.95-4.09,3.53-7.13,3.53-5.67,0-9.93-4.74-9.93-10.54s4.26-10.54,9.93-10.54ZM726.22,795.56c-4.09,0-6.93,3.24-6.93,7.34s2.84,7.34,6.93,7.34,6.89-3.24,6.89-7.34-2.8-7.34-6.89-7.34Z"/>
          <path class="cls-6" d="M741.25,792.76h3.49v3.12c1.17-2.15,3.4-3.53,6.12-3.53,3.04,0,5.23,1.66,6.24,4.34,1.09-2.67,3.65-4.34,6.65-4.34,4.42,0,7.09,3.28,7.09,8.23v12.44h-3.49v-11.92c0-3.28-1.38-5.55-4.01-5.55-3.28,0-5.55,2.84-5.55,7.42v10.05h-3.48v-11.92c0-3.28-1.34-5.55-3.97-5.55-3.28,0-5.59,2.84-5.59,7.42v10.05h-3.49v-20.26Z"/>
          <path class="cls-6" d="M775.49,792.76h3.49v3.12c1.17-2.15,3.4-3.53,6.12-3.53,3.04,0,5.23,1.66,6.24,4.34,1.09-2.67,3.65-4.34,6.65-4.34,4.42,0,7.09,3.28,7.09,8.23v12.44h-3.49v-11.92c0-3.28-1.38-5.55-4.01-5.55-3.28,0-5.55,2.84-5.55,7.42v10.05h-3.48v-11.92c0-3.28-1.34-5.55-3.97-5.55-3.28,0-5.59,2.84-5.59,7.42v10.05h-3.49v-20.26Z"/>
          <path class="cls-6" d="M811.52,787.33c-1.38,0-2.51-1.09-2.51-2.47s1.13-2.47,2.51-2.47,2.43,1.13,2.43,2.47-1.05,2.47-2.43,2.47ZM809.73,792.76h3.49v20.26h-3.49v-20.26Z"/>
          <path class="cls-6" d="M818.2,792.76h3.49v3.12c1.38-2.39,3.81-3.53,6.44-3.53,4.54,0,7.66,3.16,7.66,8.19v12.48h-3.45v-11.96c0-3.4-1.95-5.51-4.78-5.51-3.28,0-5.88,2.67-5.88,7.42v10.05h-3.49v-20.26Z"/>
          <path class="cls-6" d="M849.08,821.9c-4.38,0-7.78-1.86-9.52-4.13l2.43-2.43c1.62,2.07,3.97,3.4,7.09,3.4,3.44,0,6.77-2.15,6.77-7.01v-2.31c-1.38,2.03-4.05,3.57-7.05,3.57-5.63,0-9.93-4.54-9.93-10.33s4.3-10.29,9.93-10.29c3,0,5.67,1.5,7.05,3.53v-3.12h3.48v19.09c0,6.77-4.46,10.05-10.25,10.05ZM849.29,809.74c4.05,0,6.85-3,6.85-7.09s-2.8-7.09-6.85-7.09-6.85,3.04-6.85,7.09,2.8,7.09,6.85,7.09Z"/>
          <path class="cls-6" d="M623.73,824.36h3.48v30.4h-3.48v-30.4Z"/>
          <path class="cls-6" d="M640.55,834.09c3.04,0,5.8,1.58,7.13,3.53v-3.12h3.49v20.26h-3.49v-3.12c-1.34,1.95-4.09,3.53-7.13,3.53-5.67,0-9.93-4.74-9.93-10.54s4.25-10.54,9.93-10.54ZM641.08,837.29c-4.09,0-6.93,3.24-6.93,7.34s2.84,7.34,6.93,7.34,6.89-3.24,6.89-7.34-2.8-7.34-6.89-7.34Z"/>
          <path class="cls-6" d="M656.11,834.49h3.48v3.12c1.38-2.39,3.81-3.53,6.44-3.53,4.54,0,7.66,3.16,7.66,8.19v12.48h-3.44v-11.96c0-3.4-1.95-5.51-4.78-5.51-3.28,0-5.88,2.67-5.88,7.42v10.05h-3.48v-20.26Z"/>
          <path class="cls-6" d="M686.99,863.63c-4.38,0-7.78-1.86-9.52-4.13l2.43-2.43c1.62,2.07,3.97,3.4,7.09,3.4,3.45,0,6.77-2.15,6.77-7.01v-2.31c-1.38,2.03-4.05,3.57-7.05,3.57-5.63,0-9.93-4.54-9.93-10.33s4.3-10.29,9.93-10.29c3,0,5.67,1.5,7.05,3.53v-3.12h3.49v19.09c0,6.77-4.46,10.05-10.25,10.05ZM687.19,851.47c4.05,0,6.85-3,6.85-7.09s-2.8-7.09-6.85-7.09-6.85,3.04-6.85,7.09,2.8,7.09,6.85,7.09Z"/>
          <path class="cls-6" d="M701.9,834.49h3.49v11.92c0,3.4,1.78,5.55,4.58,5.55,3.16,0,5.63-2.76,5.63-7.42v-10.05h3.49v20.26h-3.49v-3.12c-1.34,2.35-3.69,3.53-6.24,3.53-4.46,0-7.46-3.2-7.46-8.23v-12.44Z"/>
          <path class="cls-6" d="M732.38,834.09c3.04,0,5.8,1.58,7.13,3.53v-3.12h3.49v20.26h-3.49v-3.12c-1.34,1.95-4.09,3.53-7.13,3.53-5.67,0-9.93-4.74-9.93-10.54s4.25-10.54,9.93-10.54ZM732.9,837.29c-4.09,0-6.93,3.24-6.93,7.34s2.84,7.34,6.93,7.34,6.89-3.24,6.89-7.34-2.8-7.34-6.89-7.34Z"/>
          <path class="cls-6" d="M756.57,863.63c-4.38,0-7.78-1.86-9.52-4.13l2.43-2.43c1.62,2.07,3.97,3.4,7.09,3.4,3.45,0,6.77-2.15,6.77-7.01v-2.31c-1.38,2.03-4.05,3.57-7.05,3.57-5.63,0-9.93-4.54-9.93-10.33s4.3-10.29,9.93-10.29c3,0,5.67,1.5,7.05,3.53v-3.12h3.49v19.09c0,6.77-4.46,10.05-10.25,10.05ZM756.77,851.47c4.05,0,6.85-3,6.85-7.09s-2.8-7.09-6.85-7.09-6.85,3.04-6.85,7.09,2.8,7.09,6.85,7.09Z"/>
          <path class="cls-6" d="M780.72,834.09c5.31,0,9.6,3.69,9.65,10.17,0,.36,0,.61-.04,1.05h-16.62c.12,3.81,3,6.65,7.01,6.65,3.12,0,5.07-1.38,6.32-3.53l2.76,1.9c-1.82,2.96-4.9,4.82-9.12,4.82-6.28,0-10.5-4.58-10.5-10.54s4.38-10.54,10.54-10.54ZM773.95,842.48h12.85c-.49-3.32-3.12-5.31-6.2-5.31s-6,1.95-6.65,5.31Z"/>
          <path class="cls-6" d="M799.81,855.16c-3.61,0-6.73-1.54-7.94-4.7l2.84-1.58c.73,2.07,2.92,3.2,5.15,3.2,1.95,0,3.53-.97,3.53-2.72,0-1.46-.89-2.35-3.53-3.16l-2.03-.65c-3.32-.97-5.07-3.08-5.07-5.92.04-3.49,3.08-5.55,6.97-5.55,3,0,5.35,1.26,6.69,3.53l-2.59,1.78c-.89-1.3-2.27-2.31-4.21-2.31-1.7,0-3.36.93-3.36,2.43,0,1.22.65,2.23,2.88,2.92l2.23.69c3.49,1.05,5.51,2.88,5.51,5.96,0,3.89-3,6.08-7.05,6.08Z"/>
        </g>
        <g>
          <path class="cls-6" d="M1102.25,813.51c-8.27,0-14.87-6.52-14.87-14.87s6.61-14.87,14.87-14.87,14.87,6.52,14.87,14.87-6.56,14.87-14.87,14.87ZM1102.25,809.94c6.32,0,11.1-4.98,11.1-11.31s-4.78-11.31-11.1-11.31-11.06,4.98-11.06,11.31,4.78,11.31,11.06,11.31Z"/>
          <path class="cls-6" d="M1120.61,792.76h3.49v3.12c1.38-2.39,3.81-3.53,6.44-3.53,4.54,0,7.66,3.16,7.66,8.19v12.48h-3.45v-11.96c0-3.4-1.95-5.51-4.78-5.51-3.28,0-5.88,2.67-5.88,7.42v10.05h-3.49v-20.26Z"/>
          <path class="cls-6" d="M1142.21,799.93h10.33v3.49h-10.33v-3.49Z"/>
          <path class="cls-6" d="M1157.4,784.25h8.27c8.83,0,15.32,6.16,15.32,14.39s-6.48,14.39-15.32,14.39h-8.27v-28.77ZM1165.67,809.5c6.93,0,11.51-4.62,11.51-10.86s-4.58-10.86-11.51-10.86h-4.5v21.72h4.5Z"/>
          <path class="cls-6" d="M1193.43,792.36c5.31,0,9.61,3.69,9.65,10.17,0,.36,0,.61-.04,1.05h-16.62c.12,3.81,3,6.65,7.01,6.65,3.12,0,5.07-1.38,6.32-3.53l2.76,1.9c-1.82,2.96-4.9,4.82-9.12,4.82-6.28,0-10.5-4.58-10.5-10.54s4.38-10.54,10.54-10.54ZM1186.66,800.74h12.85c-.49-3.32-3.12-5.31-6.2-5.31s-6,1.95-6.65,5.31Z"/>
          <path class="cls-6" d="M1203.03,792.76h3.89l6.93,15.32,6.93-15.32h3.89l-9.36,20.26h-2.92l-9.36-20.26Z"/>
          <path class="cls-6" d="M1228.36,787.33c-1.38,0-2.51-1.09-2.51-2.47s1.13-2.47,2.51-2.47,2.43,1.13,2.43,2.47-1.05,2.47-2.43,2.47ZM1226.57,792.76h3.49v20.26h-3.49v-20.26Z"/>
          <path class="cls-6" d="M1244.08,813.43c-6.12,0-10.62-4.66-10.62-10.54s4.5-10.54,10.62-10.54c4.17,0,7.58,2.19,9.36,5.43l-3.04,1.7c-1.13-2.31-3.4-3.89-6.32-3.89-4.21,0-7.09,3.24-7.09,7.29s2.88,7.29,7.09,7.29c2.92,0,5.19-1.58,6.32-3.89l3.04,1.7c-1.78,3.24-5.19,5.43-9.36,5.43Z"/>
          <path class="cls-6" d="M1265.27,792.36c5.31,0,9.6,3.69,9.65,10.17,0,.36,0,.61-.04,1.05h-16.62c.12,3.81,3,6.65,7.01,6.65,3.12,0,5.07-1.38,6.32-3.53l2.76,1.9c-1.82,2.96-4.9,4.82-9.12,4.82-6.28,0-10.5-4.58-10.5-10.54s4.38-10.54,10.54-10.54ZM1258.5,800.74h12.85c-.49-3.32-3.12-5.31-6.2-5.31s-6,1.95-6.65,5.31Z"/>
        </g>
        <g>
          <path class="cls-6" d="M1097.68,909.11h-11.46l5.86-7.11h12.8v59.39h-7.19v-52.28Z"/>
          <path class="cls-6" d="M1135.41,962.23c-12.21,0-21-9.12-21-22.33v-16.56c0-13.13,8.78-22.33,21-22.33s21.08,9.2,21.08,22.33v16.56c0,13.22-8.87,22.33-21.08,22.33ZM1135.41,955.2c8.11,0,13.89-5.69,13.89-15.31v-16.56c0-9.62-5.77-15.31-13.89-15.31s-13.8,5.69-13.8,15.31v16.56c0,9.62,5.77,15.31,13.8,15.31Z"/>
          <path class="cls-6" d="M1184.17,962.23c-12.21,0-21-9.12-21-22.33v-16.56c0-13.13,8.78-22.33,21-22.33s21.08,9.2,21.08,22.33v16.56c0,13.22-8.87,22.33-21.08,22.33ZM1184.17,955.2c8.11,0,13.89-5.69,13.89-15.31v-16.56c0-9.62-5.77-15.31-13.89-15.31s-13.8,5.69-13.8,15.31v16.56c0,9.62,5.77,15.31,13.8,15.31Z"/>
          <path class="cls-6" d="M1226.08,934.29c-9.12,0-16.48-7.44-16.48-16.48s7.36-16.48,16.48-16.48,16.48,7.36,16.48,16.48-7.45,16.48-16.48,16.48ZM1226.08,927.76c5.44,0,9.87-4.6,9.87-9.95s-4.43-9.95-9.87-9.95-9.87,4.6-9.87,9.95,4.35,9.95,9.87,9.95ZM1263.3,902h7.78l-37.64,59.39h-7.78l37.64-59.39ZM1270.66,962.06c-9.12,0-16.48-7.44-16.48-16.48s7.36-16.48,16.48-16.48,16.48,7.36,16.48,16.48-7.44,16.48-16.48,16.48ZM1270.66,955.53c5.44,0,9.87-4.6,9.87-9.95s-4.43-9.95-9.87-9.95-9.87,4.6-9.87,9.95,4.35,9.95,9.87,9.95Z"/>
        </g>
        <g>
          <path class="cls-6" d="M644.38,962.23c-11.63,0-19.99-7.86-19.99-18.65,0-7.11,3.51-12.63,9.45-15.56-3.85-2.59-6.19-6.78-6.19-11.71,0-8.87,7.19-15.31,16.73-15.31s16.65,6.44,16.65,15.31c0,4.94-2.26,9.12-6.02,11.71,5.86,2.93,9.29,8.45,9.29,15.56,0,10.79-8.11,18.65-19.91,18.65ZM644.38,955.37c7.95,0,12.63-5.27,12.63-11.79s-4.68-11.88-12.63-11.88-12.71,5.19-12.71,11.88,4.94,11.79,12.71,11.79ZM644.38,925.25c6.02,0,9.54-4.18,9.54-8.78,0-4.94-3.6-8.7-9.54-8.7s-9.62,3.76-9.62,8.7c0,4.6,3.76,8.78,9.62,8.78Z"/>
          <path class="cls-6" d="M668.05,933.95h14.47v-14.39h6.53v14.39h14.39v6.44h-14.39v14.39h-6.53v-14.39h-14.47v-6.44Z"/>
        </g>
        <g>
          <path class="cls-6" d="M176.26,962.23c-11.54,0-20.16-8.78-20.16-19.57,0-6.27,3.01-10.79,6.69-15.14l21.67-25.51h9.12l-18.15,21.5c.84-.08,1.59-.17,2.34-.17,9.95,0,18.57,8.78,18.57,19.16,0,10.96-8.53,19.74-20.08,19.74ZM176.26,955.28c7.19,0,12.71-5.77,12.71-12.8s-5.52-12.8-12.71-12.8-12.8,5.77-12.8,12.8,5.52,12.8,12.8,12.8Z"/>
          <path class="cls-6" d="M219.68,962.23c-11.54,0-20.16-8.78-20.16-19.57,0-6.27,3.01-10.79,6.69-15.14l21.67-25.51h9.12l-18.15,21.5c.84-.08,1.59-.17,2.34-.17,9.95,0,18.57,8.78,18.57,19.16,0,10.96-8.53,19.74-20.08,19.74ZM219.68,955.28c7.19,0,12.71-5.77,12.71-12.8s-5.52-12.8-12.71-12.8-12.8,5.77-12.8,12.8,5.52,12.8,12.8,12.8Z"/>
          <path class="cls-6" d="M255.56,915.22v46.17h-7.78v-59.39h7.11l22.08,29.61,22.08-29.61h7.03v59.39h-7.7v-46.17l-21.41,28.78-21.41-28.78Z"/>
        </g>
        <line class="cls-2" x1="157.77" y1="878.71" x2="407.74" y2="878.71"/>
        <line class="cls-2" x1="621.9" y1="878.71" x2="871.87" y2="878.71"/>
        <line class="cls-2" x1="1086.03" y1="878.71" x2="1336" y2="878.71"/>
      </g>
      <g>
        <path class="cls-6" d="M158.3,582.04h3.77v28.77h-3.77v-28.77Z"/>
        <path class="cls-6" d="M167.46,590.55h3.49v3.12c1.38-2.39,3.81-3.53,6.44-3.53,4.54,0,7.66,3.16,7.66,8.19v12.48h-3.45v-11.96c0-3.4-1.95-5.51-4.78-5.51-3.28,0-5.88,2.67-5.88,7.42v10.05h-3.49v-20.26Z"/>
        <path class="cls-6" d="M198.74,611.22c-6.12,0-10.62-4.66-10.62-10.54s4.5-10.54,10.62-10.54c4.17,0,7.58,2.19,9.36,5.43l-3.04,1.7c-1.13-2.31-3.4-3.89-6.32-3.89-4.21,0-7.09,3.24-7.09,7.29s2.88,7.29,7.09,7.29c2.92,0,5.19-1.58,6.32-3.89l3.04,1.7c-1.78,3.24-5.19,5.43-9.36,5.43Z"/>
        <path class="cls-6" d="M210.98,590.55h3.49v3.93c.81-2.59,3.32-4.13,5.67-4.13.53,0,1.01.04,1.58.16v3.61c-.65-.24-1.22-.32-1.9-.32-2.55,0-5.35,2.23-5.35,6.97v10.05h-3.49v-20.26Z"/>
        <path class="cls-6" d="M232.42,590.15c5.31,0,9.6,3.69,9.65,10.17,0,.36,0,.61-.04,1.05h-16.62c.12,3.81,3,6.65,7.01,6.65,3.12,0,5.07-1.38,6.32-3.53l2.76,1.9c-1.82,2.96-4.9,4.82-9.12,4.82-6.28,0-10.5-4.58-10.5-10.54s4.38-10.54,10.54-10.54ZM225.65,598.53h12.85c-.49-3.32-3.12-5.31-6.2-5.31s-6,1.95-6.65,5.31Z"/>
        <path class="cls-6" d="M253.73,590.15c3.04,0,5.79,1.58,7.13,3.53v-13.25h3.48v30.4h-3.48v-3.12c-1.34,1.95-4.09,3.53-7.13,3.53-5.67,0-9.93-4.74-9.93-10.54s4.26-10.54,9.93-10.54ZM254.26,593.35c-4.09,0-6.93,3.24-6.93,7.34s2.84,7.34,6.93,7.34,6.89-3.24,6.89-7.34-2.8-7.34-6.89-7.34Z"/>
        <path class="cls-6" d="M271.08,585.12c-1.38,0-2.51-1.09-2.51-2.47s1.13-2.47,2.51-2.47,2.43,1.13,2.43,2.47-1.05,2.47-2.43,2.47ZM269.29,590.55h3.49v20.26h-3.49v-20.26Z"/>
        <path class="cls-6" d="M281.25,610.81h-3.49v-30.4h3.49v13.25c1.34-1.95,4.09-3.53,7.13-3.53,5.63,0,9.93,4.74,9.93,10.54s-4.3,10.54-9.93,10.54c-3.04,0-5.8-1.58-7.13-3.53v3.12ZM287.85,593.35c-4.09,0-6.89,3.24-6.89,7.34s2.8,7.34,6.89,7.34,6.89-3.24,6.89-7.34-2.8-7.34-6.89-7.34Z"/>
        <path class="cls-6" d="M301.67,580.42h3.49v30.4h-3.49v-30.4Z"/>
        <path class="cls-6" d="M311.64,619.28l4.42-9.52-8.88-19.21h3.85l6.97,15.36,6.93-15.36h3.89l-13.29,28.73h-3.89Z"/>
        <path class="cls-6" d="M337.94,580.42h3.48v30.4h-3.48v-30.4Z"/>
        <path class="cls-6" d="M348.19,585.12c-1.38,0-2.51-1.09-2.51-2.47s1.13-2.47,2.51-2.47,2.43,1.13,2.43,2.47-1.05,2.47-2.43,2.47ZM346.41,590.55h3.48v20.26h-3.48v-20.26Z"/>
        <path class="cls-6" d="M363.51,619.69c-4.38,0-7.78-1.86-9.52-4.13l2.43-2.43c1.62,2.07,3.97,3.4,7.09,3.4,3.45,0,6.77-2.15,6.77-7.01v-2.31c-1.38,2.03-4.05,3.57-7.05,3.57-5.63,0-9.93-4.54-9.93-10.33s4.3-10.29,9.93-10.29c3,0,5.67,1.5,7.05,3.53v-3.12h3.49v19.09c0,6.77-4.46,10.05-10.25,10.05ZM363.71,607.53c4.05,0,6.85-3,6.85-7.09s-2.8-7.09-6.85-7.09-6.85,3.04-6.85,7.09,2.8,7.09,6.85,7.09Z"/>
        <path class="cls-6" d="M378.71,580.42h3.48v13.25c1.38-2.39,3.81-3.53,6.44-3.53,4.54,0,7.66,3.16,7.66,8.19v12.48h-3.44v-11.96c0-3.4-1.95-5.51-4.78-5.51-3.28,0-5.88,2.67-5.88,7.42v10.05h-3.48v-30.4Z"/>
        <path class="cls-6" d="M408.57,611.02c-3.53,0-6.2-1.99-6.2-6.2v-11.06h-4.3v-3.2h4.3v-5.63h3.49v5.63h5.84v3.2h-5.84v10.62c0,2.59,1.18,3.44,3.36,3.44.85,0,1.82-.16,2.47-.41v3.12c-.85.28-1.86.49-3.12.49Z"/>
        <path class="cls-6" d="M426.73,596.22l-5.03,14.59h-3.08l-6.89-20.26h3.65l4.9,14.79,5.07-14.79h2.67l5.07,14.79,4.9-14.79h3.69l-6.89,20.26h-3.08l-4.99-14.59Z"/>
        <path class="cls-6" d="M452.7,590.15c5.31,0,9.6,3.69,9.65,10.17,0,.36,0,.61-.04,1.05h-16.62c.12,3.81,3,6.65,7.01,6.65,3.12,0,5.07-1.38,6.32-3.53l2.76,1.9c-1.82,2.96-4.9,4.82-9.12,4.82-6.28,0-10.5-4.58-10.5-10.54s4.38-10.54,10.54-10.54ZM445.93,598.53h12.85c-.49-3.32-3.12-5.31-6.2-5.31s-6,1.95-6.65,5.31Z"/>
        <path class="cls-6" d="M467.45,585.12c-1.38,0-2.51-1.09-2.51-2.47s1.13-2.47,2.51-2.47,2.43,1.13,2.43,2.47-1.05,2.47-2.43,2.47ZM465.67,590.55h3.49v20.26h-3.49v-20.26Z"/>
        <path class="cls-6" d="M482.77,619.69c-4.38,0-7.78-1.86-9.52-4.13l2.43-2.43c1.62,2.07,3.97,3.4,7.09,3.4,3.45,0,6.77-2.15,6.77-7.01v-2.31c-1.38,2.03-4.05,3.57-7.05,3.57-5.63,0-9.93-4.54-9.93-10.33s4.3-10.29,9.93-10.29c3,0,5.67,1.5,7.05,3.53v-3.12h3.49v19.09c0,6.77-4.46,10.05-10.25,10.05ZM482.97,607.53c4.05,0,6.85-3,6.85-7.09s-2.8-7.09-6.85-7.09-6.85,3.04-6.85,7.09,2.8,7.09,6.85,7.09Z"/>
        <path class="cls-6" d="M497.96,580.42h3.48v13.25c1.38-2.39,3.81-3.53,6.44-3.53,4.54,0,7.66,3.16,7.66,8.19v12.48h-3.44v-11.96c0-3.4-1.95-5.51-4.78-5.51-3.28,0-5.88,2.67-5.88,7.42v10.05h-3.48v-30.4Z"/>
        <path class="cls-6" d="M527.83,611.02c-3.53,0-6.2-1.99-6.2-6.2v-11.06h-4.3v-3.2h4.3v-5.63h3.49v5.63h5.84v3.2h-5.84v10.62c0,2.59,1.18,3.44,3.36,3.44.85,0,1.82-.16,2.47-.41v3.12c-.85.28-1.86.49-3.12.49Z"/>
        <path class="cls-6" d="M550.28,590.15c3.04,0,5.79,1.58,7.13,3.53v-3.12h3.48v20.26h-3.48v-3.12c-1.34,1.95-4.09,3.53-7.13,3.53-5.67,0-9.93-4.74-9.93-10.54s4.26-10.54,9.93-10.54ZM550.81,593.35c-4.09,0-6.93,3.24-6.93,7.34s2.84,7.34,6.93,7.34,6.89-3.24,6.89-7.34-2.8-7.34-6.89-7.34Z"/>
        <path class="cls-6" d="M565.84,590.55h3.49v3.12c1.38-2.39,3.81-3.53,6.44-3.53,4.54,0,7.66,3.16,7.66,8.19v12.48h-3.45v-11.96c0-3.4-1.95-5.51-4.78-5.51-3.28,0-5.88,2.67-5.88,7.42v10.05h-3.49v-20.26Z"/>
        <path class="cls-6" d="M596.43,590.15c3.04,0,5.8,1.58,7.13,3.53v-13.25h3.49v30.4h-3.49v-3.12c-1.34,1.95-4.09,3.53-7.13,3.53-5.67,0-9.93-4.74-9.93-10.54s4.25-10.54,9.93-10.54ZM596.96,593.35c-4.09,0-6.93,3.24-6.93,7.34s2.84,7.34,6.93,7.34,6.89-3.24,6.89-7.34-2.8-7.34-6.89-7.34Z"/>
        <path class="cls-6" d="M623.62,610.81h-3.48v-30.4h3.48v13.25c1.34-1.95,4.09-3.53,7.13-3.53,5.63,0,9.93,4.74,9.93,10.54s-4.3,10.54-9.93,10.54c-3.04,0-5.79-1.58-7.13-3.53v3.12ZM630.23,593.35c-4.09,0-6.89,3.24-6.89,7.34s2.8,7.34,6.89,7.34,6.89-3.24,6.89-7.34-2.8-7.34-6.89-7.34Z"/>
        <path class="cls-6" d="M644.05,580.42h3.49v30.4h-3.49v-30.4Z"/>
        <path class="cls-6" d="M660.87,590.15c3.04,0,5.79,1.58,7.13,3.53v-3.12h3.48v20.26h-3.48v-3.12c-1.34,1.95-4.09,3.53-7.13,3.53-5.67,0-9.93-4.74-9.93-10.54s4.26-10.54,9.93-10.54ZM661.39,593.35c-4.09,0-6.93,3.24-6.93,7.34s2.84,7.34,6.93,7.34,6.89-3.24,6.89-7.34-2.8-7.34-6.89-7.34Z"/>
        <path class="cls-6" d="M674.76,608.06l11.63-14.31h-11.47v-3.2h15.93v2.8l-11.55,14.27h11.92v3.2h-16.45v-2.76Z"/>
        <path class="cls-6" d="M696.2,585.12c-1.38,0-2.51-1.09-2.51-2.47s1.13-2.47,2.51-2.47,2.43,1.13,2.43,2.47-1.05,2.47-2.43,2.47ZM694.42,590.55h3.49v20.26h-3.49v-20.26Z"/>
        <path class="cls-6" d="M702.89,590.55h3.49v3.12c1.38-2.39,3.81-3.53,6.44-3.53,4.54,0,7.66,3.16,7.66,8.19v12.48h-3.45v-11.96c0-3.4-1.95-5.51-4.78-5.51-3.28,0-5.88,2.67-5.88,7.42v10.05h-3.49v-20.26Z"/>
        <path class="cls-6" d="M733.76,619.69c-4.38,0-7.78-1.86-9.52-4.13l2.43-2.43c1.62,2.07,3.97,3.4,7.09,3.4,3.44,0,6.77-2.15,6.77-7.01v-2.31c-1.38,2.03-4.05,3.57-7.05,3.57-5.63,0-9.93-4.54-9.93-10.33s4.3-10.29,9.93-10.29c3,0,5.67,1.5,7.05,3.53v-3.12h3.48v19.09c0,6.77-4.46,10.05-10.25,10.05ZM733.97,607.53c4.05,0,6.85-3,6.85-7.09s-2.8-7.09-6.85-7.09-6.85,3.04-6.85,7.09,2.8,7.09,6.85,7.09Z"/>
        <path class="cls-6" d="M748.96,580.42h3.49v30.4h-3.49v-30.4Z"/>
        <path class="cls-6" d="M758.93,619.28l4.42-9.52-8.88-19.21h3.85l6.97,15.36,6.93-15.36h3.89l-13.29,28.73h-3.89Z"/>
        <path class="cls-6" d="M786.4,593.75h-4.3v-3.2h4.3v-4.09c0-4.17,2.67-6.28,6.2-6.28,1.22,0,2.27.2,3.16.53v3.08c-.65-.24-1.7-.41-2.51-.41-2.23,0-3.36.89-3.36,3.44v3.73h5.88v3.2h-5.88v17.06h-3.48v-17.06Z"/>
        <path class="cls-6" d="M805.78,590.15c3.04,0,5.79,1.58,7.13,3.53v-3.12h3.48v20.26h-3.48v-3.12c-1.34,1.95-4.09,3.53-7.13,3.53-5.67,0-9.93-4.74-9.93-10.54s4.26-10.54,9.93-10.54ZM806.3,593.35c-4.09,0-6.93,3.24-6.93,7.34s2.84,7.34,6.93,7.34,6.89-3.24,6.89-7.34-2.8-7.34-6.89-7.34Z"/>
        <path class="cls-6" d="M827.45,611.22c-3.61,0-6.73-1.54-7.94-4.7l2.84-1.58c.73,2.07,2.92,3.2,5.15,3.2,1.95,0,3.53-.97,3.53-2.72,0-1.46-.89-2.35-3.53-3.16l-2.03-.65c-3.32-.97-5.07-3.08-5.07-5.92.04-3.49,3.08-5.55,6.97-5.55,3,0,5.35,1.26,6.69,3.53l-2.59,1.78c-.89-1.3-2.27-2.31-4.21-2.31-1.7,0-3.36.93-3.36,2.43,0,1.22.65,2.23,2.88,2.92l2.23.69c3.49,1.05,5.51,2.88,5.51,5.96,0,3.89-3,6.08-7.05,6.08Z"/>
        <path class="cls-6" d="M845.61,611.02c-3.53,0-6.2-1.99-6.2-6.2v-11.06h-4.3v-3.2h4.3v-5.63h3.49v5.63h5.84v3.2h-5.84v10.62c0,2.59,1.17,3.44,3.36,3.44.85,0,1.82-.16,2.47-.41v3.12c-.85.28-1.86.49-3.12.49Z"/>
        <path class="cls-6" d="M851.73,616.61h-2.31l2.72-5.8c-.97-.49-1.66-1.5-1.66-2.72,0-1.62,1.34-3.04,3-3.04s3,1.42,3,3.04c0,.69-.24,1.3-.57,1.82l-4.17,6.69Z"/>
        <path class="cls-6" d="M157.78,639.18h3.48v3.93c.81-2.59,3.32-4.13,5.67-4.13.53,0,1.01.04,1.58.16v3.61c-.65-.24-1.22-.32-1.91-.32-2.55,0-5.35,2.23-5.35,6.97v10.05h-3.48v-20.26Z"/>
        <path class="cls-6" d="M170.7,639.18h3.49v11.92c0,3.4,1.78,5.55,4.58,5.55,3.16,0,5.63-2.76,5.63-7.42v-10.05h3.49v20.26h-3.49v-3.12c-1.34,2.35-3.69,3.53-6.24,3.53-4.46,0-7.46-3.2-7.46-8.23v-12.44Z"/>
        <path class="cls-6" d="M192.83,639.18h3.48v3.12c1.38-2.39,3.81-3.53,6.44-3.53,4.54,0,7.66,3.16,7.66,8.19v12.48h-3.44v-11.96c0-3.4-1.95-5.51-4.78-5.51-3.28,0-5.88,2.67-5.88,7.42v10.05h-3.48v-20.26Z"/>
        <path class="cls-6" d="M215.07,639.18h3.48v3.12c1.38-2.39,3.81-3.53,6.44-3.53,4.54,0,7.66,3.16,7.66,8.19v12.48h-3.44v-11.96c0-3.4-1.95-5.51-4.78-5.51-3.28,0-5.88,2.67-5.88,7.42v10.05h-3.48v-20.26Z"/>
        <path class="cls-6" d="M239.1,633.75c-1.38,0-2.51-1.09-2.51-2.47s1.13-2.47,2.51-2.47,2.43,1.13,2.43,2.47-1.05,2.47-2.43,2.47ZM237.32,639.18h3.49v20.26h-3.49v-20.26Z"/>
        <path class="cls-6" d="M245.79,639.18h3.48v3.12c1.38-2.39,3.81-3.53,6.44-3.53,4.54,0,7.66,3.16,7.66,8.19v12.48h-3.44v-11.96c0-3.4-1.95-5.51-4.78-5.51-3.28,0-5.88,2.67-5.88,7.42v10.05h-3.48v-20.26Z"/>
        <path class="cls-6" d="M276.67,668.32c-4.38,0-7.78-1.86-9.52-4.13l2.43-2.43c1.62,2.07,3.97,3.4,7.09,3.4,3.44,0,6.77-2.15,6.77-7.01v-2.31c-1.38,2.03-4.05,3.57-7.05,3.57-5.63,0-9.93-4.54-9.93-10.33s4.3-10.29,9.93-10.29c3,0,5.67,1.5,7.05,3.53v-3.12h3.48v19.09c0,6.77-4.46,10.05-10.25,10.05ZM276.87,656.16c4.05,0,6.85-3,6.85-7.09s-2.8-7.09-6.85-7.09-6.85,3.04-6.85,7.09,2.8,7.09,6.85,7.09Z"/>
        <path class="cls-6" d="M300.01,639.18h3.48v3.12c1.38-2.39,3.81-3.53,6.44-3.53,4.54,0,7.66,3.16,7.66,8.19v12.48h-3.44v-11.96c0-3.4-1.95-5.51-4.78-5.51-3.28,0-5.88,2.67-5.88,7.42v10.05h-3.48v-20.26Z"/>
        <path class="cls-6" d="M330.61,638.77c3.04,0,5.79,1.58,7.13,3.53v-3.12h3.48v20.26h-3.48v-3.12c-1.34,1.95-4.09,3.53-7.13,3.53-5.67,0-9.93-4.74-9.93-10.54s4.26-10.54,9.93-10.54ZM331.13,641.98c-4.09,0-6.93,3.24-6.93,7.34s2.84,7.34,6.93,7.34,6.89-3.24,6.89-7.34-2.8-7.34-6.89-7.34Z"/>
        <path class="cls-6" d="M354.03,659.65c-3.53,0-6.2-1.99-6.2-6.2v-11.06h-4.3v-3.2h4.3v-5.63h3.49v5.63h5.84v3.2h-5.84v10.62c0,2.59,1.17,3.44,3.36,3.44.85,0,1.82-.16,2.47-.41v3.12c-.85.28-1.86.49-3.12.49Z"/>
        <path class="cls-6" d="M361.77,633.75c-1.38,0-2.51-1.09-2.51-2.47s1.13-2.47,2.51-2.47,2.43,1.13,2.43,2.47-1.05,2.47-2.43,2.47ZM359.98,639.18h3.49v20.26h-3.49v-20.26Z"/>
        <path class="cls-6" d="M365.41,639.18h3.89l6.93,15.32,6.93-15.32h3.89l-9.36,20.26h-2.92l-9.36-20.26Z"/>
        <path class="cls-6" d="M397.47,638.77c5.31,0,9.6,3.69,9.65,10.17,0,.36,0,.61-.04,1.05h-16.62c.12,3.81,3,6.65,7.01,6.65,3.12,0,5.07-1.38,6.32-3.53l2.76,1.9c-1.82,2.96-4.9,4.82-9.12,4.82-6.28,0-10.5-4.58-10.5-10.54s4.38-10.54,10.54-10.54ZM390.7,647.16h12.85c-.49-3.32-3.12-5.31-6.2-5.31s-6,1.95-6.65,5.31Z"/>
        <path class="cls-6" d="M410.43,629.05h3.49v30.4h-3.49v-30.4Z"/>
        <path class="cls-6" d="M420.4,667.91l4.42-9.52-8.88-19.21h3.85l6.97,15.36,6.93-15.36h3.89l-13.29,28.73h-3.89Z"/>
        <path class="cls-6" d="M448.49,633.75c-1.38,0-2.51-1.09-2.51-2.47s1.13-2.47,2.51-2.47,2.43,1.13,2.43,2.47-1.05,2.47-2.43,2.47ZM446.7,639.18h3.48v20.26h-3.48v-20.26Z"/>
        <path class="cls-6" d="M455.17,639.18h3.48v3.12c1.38-2.39,3.81-3.53,6.44-3.53,4.54,0,7.66,3.16,7.66,8.19v12.48h-3.44v-11.96c0-3.4-1.95-5.51-4.78-5.51-3.28,0-5.88,2.67-5.88,7.42v10.05h-3.48v-20.26Z"/>
        <path class="cls-6" d="M486.13,667.91l4.42-9.52-8.88-19.21h3.85l6.97,15.36,6.93-15.36h3.89l-13.29,28.73h-3.89Z"/>
        <path class="cls-6" d="M513.73,659.85c-6.12,0-10.62-4.7-10.62-10.54s4.5-10.54,10.62-10.54,10.58,4.7,10.58,10.54-4.5,10.54-10.58,10.54ZM513.73,656.61c4.21,0,7.01-3.24,7.01-7.29s-2.8-7.29-7.01-7.29-7.05,3.24-7.05,7.29,2.84,7.29,7.05,7.29Z"/>
        <path class="cls-6" d="M527.38,639.18h3.49v11.92c0,3.4,1.78,5.55,4.58,5.55,3.16,0,5.63-2.76,5.63-7.42v-10.05h3.49v20.26h-3.49v-3.12c-1.34,2.35-3.69,3.53-6.24,3.53-4.46,0-7.46-3.2-7.46-8.23v-12.44Z"/>
        <path class="cls-6" d="M549.51,639.18h3.48v3.93c.81-2.59,3.32-4.13,5.67-4.13.53,0,1.01.04,1.58.16v3.61c-.65-.24-1.22-.32-1.91-.32-2.55,0-5.35,2.23-5.35,6.97v10.05h-3.48v-20.26Z"/>
        <path class="cls-6" d="M578.81,638.77c5.31,0,9.61,3.69,9.65,10.17,0,.36,0,.61-.04,1.05h-16.62c.12,3.81,3,6.65,7.01,6.65,3.12,0,5.07-1.38,6.32-3.53l2.76,1.9c-1.82,2.96-4.9,4.82-9.12,4.82-6.28,0-10.5-4.58-10.5-10.54s4.38-10.54,10.54-10.54ZM572.04,647.16h12.85c-.49-3.32-3.12-5.31-6.2-5.31s-6,1.95-6.65,5.31Z"/>
        <path class="cls-6" d="M591.78,639.18h3.48v3.12c1.38-2.39,3.81-3.53,6.44-3.53,4.54,0,7.66,3.16,7.66,8.19v12.48h-3.44v-11.96c0-3.4-1.95-5.51-4.78-5.51-3.28,0-5.88,2.67-5.88,7.42v10.05h-3.48v-20.26Z"/>
        <path class="cls-6" d="M610.54,639.18h3.89l6.93,15.32,6.93-15.32h3.89l-9.36,20.26h-2.92l-9.36-20.26Z"/>
        <path class="cls-6" d="M635.86,633.75c-1.38,0-2.51-1.09-2.51-2.47s1.13-2.47,2.51-2.47,2.43,1.13,2.43,2.47-1.05,2.47-2.43,2.47ZM634.08,639.18h3.49v20.26h-3.49v-20.26Z"/>
        <path class="cls-6" d="M642.55,639.18h3.49v3.93c.81-2.59,3.32-4.13,5.67-4.13.53,0,1.01.04,1.58.16v3.61c-.65-.24-1.22-.32-1.9-.32-2.55,0-5.35,2.23-5.35,6.97v10.05h-3.49v-20.26Z"/>
        <path class="cls-6" d="M664.03,659.85c-6.12,0-10.62-4.7-10.62-10.54s4.5-10.54,10.62-10.54,10.58,4.7,10.58,10.54-4.5,10.54-10.58,10.54ZM664.03,656.61c4.21,0,7.01-3.24,7.01-7.29s-2.8-7.29-7.01-7.29-7.05,3.24-7.05,7.29,2.84,7.29,7.05,7.29Z"/>
        <path class="cls-6" d="M677.97,639.18h3.49v3.12c1.38-2.39,3.81-3.53,6.44-3.53,4.54,0,7.66,3.16,7.66,8.19v12.48h-3.45v-11.96c0-3.4-1.95-5.51-4.78-5.51-3.28,0-5.88,2.67-5.88,7.42v10.05h-3.49v-20.26Z"/>
        <path class="cls-6" d="M700.21,639.18h3.49v3.12c1.17-2.15,3.4-3.53,6.12-3.53,3.04,0,5.23,1.66,6.24,4.34,1.09-2.67,3.65-4.34,6.65-4.34,4.42,0,7.09,3.28,7.09,8.23v12.44h-3.49v-11.92c0-3.28-1.38-5.55-4.01-5.55-3.28,0-5.55,2.84-5.55,7.42v10.05h-3.48v-11.92c0-3.28-1.34-5.55-3.97-5.55-3.28,0-5.59,2.84-5.59,7.42v10.05h-3.49v-20.26Z"/>
        <path class="cls-6" d="M743.41,638.77c5.31,0,9.61,3.69,9.65,10.17,0,.36,0,.61-.04,1.05h-16.62c.12,3.81,3,6.65,7.01,6.65,3.12,0,5.07-1.38,6.32-3.53l2.76,1.9c-1.82,2.96-4.9,4.82-9.12,4.82-6.28,0-10.5-4.58-10.5-10.54s4.38-10.54,10.54-10.54ZM736.64,647.16h12.85c-.49-3.32-3.12-5.31-6.2-5.31s-6,1.95-6.65,5.31Z"/>
        <path class="cls-6" d="M756.38,639.18h3.48v3.12c1.38-2.39,3.81-3.53,6.44-3.53,4.54,0,7.66,3.16,7.66,8.19v12.48h-3.44v-11.96c0-3.4-1.95-5.51-4.78-5.51-3.28,0-5.88,2.67-5.88,7.42v10.05h-3.48v-20.26Z"/>
        <path class="cls-6" d="M786.24,659.65c-3.53,0-6.2-1.99-6.2-6.2v-11.06h-4.3v-3.2h4.3v-5.63h3.49v5.63h5.84v3.2h-5.84v10.62c0,2.59,1.18,3.44,3.36,3.44.85,0,1.82-.16,2.47-.41v3.12c-.85.28-1.86.49-3.12.49Z"/>
        <path class="cls-6" d="M796.42,639.18h3.89l6.93,15.32,6.93-15.32h3.89l-9.36,20.26h-2.92l-9.36-20.26Z"/>
        <path class="cls-6" d="M821.74,633.75c-1.38,0-2.51-1.09-2.51-2.47s1.13-2.47,2.51-2.47,2.43,1.13,2.43,2.47-1.05,2.47-2.43,2.47ZM819.96,639.18h3.49v20.26h-3.49v-20.26Z"/>
        <path class="cls-6" d="M836.78,638.77c3.04,0,5.79,1.58,7.13,3.53v-3.12h3.48v20.26h-3.48v-3.12c-1.34,1.95-4.09,3.53-7.13,3.53-5.67,0-9.93-4.74-9.93-10.54s4.26-10.54,9.93-10.54ZM837.3,641.98c-4.09,0-6.93,3.24-6.93,7.34s2.84,7.34,6.93,7.34,6.89-3.24,6.89-7.34-2.8-7.34-6.89-7.34Z"/>
        <path class="cls-6" d="M873.9,659.93c-8.27,0-14.87-6.52-14.87-14.87s6.61-14.87,14.87-14.87,14.87,6.52,14.87,14.87-6.56,14.87-14.87,14.87ZM873.9,656.36c6.32,0,11.1-4.98,11.1-11.31s-4.78-11.31-11.1-11.31-11.06,4.98-11.06,11.31,4.78,11.31,11.06,11.31Z"/>
        <path class="cls-6" d="M914.1,659.44l-17.51-22.41v22.41h-3.77v-28.77h3.28l17.51,22.41v-22.41h3.73v28.77h-3.24Z"/>
        <path class="cls-6" d="M944.65,659.44l-17.51-22.41v22.41h-3.77v-28.77h3.28l17.51,22.41v-22.41h3.73v28.77h-3.24Z"/>
        <path class="cls-6" d="M963.7,647.89l-8.79,11.55h-4.62l11.1-14.55-10.66-14.23h4.5l8.47,11.23,8.47-11.23h4.5l-10.62,14.23,11.06,14.55h-4.58l-8.83-11.55Z"/>
        <path class="cls-6" d="M980.75,659.77c-1.66,0-3-1.38-3-3.04s1.34-3.04,3-3.04,3,1.42,3,3.04-1.34,3.04-3,3.04Z"/>
      </g>
      <g>
        <path class="cls-3" d="M312.56,274.03h-18c0-5.18-4.04-10.02-9.4-10.07l-104.25.02c-11.33,2.12-11.32,17.43-.38,20.06l102.54.02c38.59,2.04,38.78,52.82,2.1,56.56-33.79-1.6-69.45,2.06-103.02,0-11.72-.72-21.95-7.64-26.04-18.75-1.18-3.2-1.28-6.01-1.77-9.32h18c.28,4.87,3.95,9.62,8.98,10.07l104.25-.02c12.15-2.24,11.75-18.22-.05-20.47l-105.04-.03c-34.49-3.76-34.33-52.52,0-56.14l107.07.13c13.99,1.94,24.86,13.7,25.02,27.94Z"/>
        <polygon class="cls-3" points="845.46 245.97 845.46 263.98 708.99 263.98 708.99 284.08 807.58 284.08 808.2 284.71 808.2 302.08 708.99 302.08 708.99 322.6 845.46 322.6 845.46 340.61 690.15 340.61 690.15 245.97 845.46 245.97"/>
        <path class="cls-3" d="M979.42,302.08l40.19,38.52h-24.07l-41.02-38.52h-66.35v38.52h-18.42v-94.63h127.89c2.7,0,8.65,2.55,11.1,3.97,18.71,10.84,17.89,38.72-.98,48.86-1.77.95-7.92,3.28-9.7,3.28h-18.63ZM888.16,284.08h108.63c.19,0,2.17-.96,2.59-1.18,5.89-3.09,6.76-10.78,2.58-15.72-.77-.9-3.71-3.2-4.75-3.2h-109.05v20.1Z"/>
        <path class="cls-3" d="M1223.38,246.09l104.97-.13c13.07,1.48,23.94,11.35,25.72,24.52-2.05,25.65,10.21,65.79-26.58,70.12l-101.32.02c-16.42-1.48-26.57-12.82-27.42-29.1-.57-10.96-.6-25.52,0-36.47.83-15.17,9.22-26.52,24.62-28.97ZM1225.46,264.08c-3.86,1.07-7.28,3.93-7.85,8.06,1.21,13.06-1.63,29.14.04,41.84.54,4.08,4.71,8.46,8.95,8.64l100.07-.02c4.88-.89,8.58-4.39,9.01-9.41,1.12-12.93-.84-27.49-.05-40.6-.75-4.36-4.01-8.14-8.53-8.64l-101.64.12Z"/>
        <path class="cls-3" d="M537.36,302.08v38.52h-18.42v-94.63h127.89c2.29,0,8.64,2.6,10.8,3.85,19.96,11.5,17.66,41.29-3.33,50.11-1.6.67-5.94,2.15-7.48,2.15h-109.47ZM537.36,284.08h108.21c2.55,0,6.68-3.98,7.46-6.35,1.45-4.38-.08-9.62-3.93-12.25-.44-.3-2.83-1.49-3.11-1.49h-108.63v20.1Z"/>
        <path class="cls-3" d="M1763.91,245.97v18h-128.72c-.58,0-3.75,1.77-4.41,2.29-2.94,2.33-3.53,5.62-3.78,9.2-.69,9.89-.63,24.87,0,34.79.15,2.35.5,5.46,1.76,7.45.92,1.44,4.77,4.88,6.42,4.88h128.72v18h-129.14c-14.54,0-25.37-14.67-26.18-28.25-.67-11.18-.67-26.96,0-38.14.74-12.49,10.69-28.25,24.51-28.25h130.82Z"/>
        <polygon class="cls-3" points="1517.76 323.86 1517.76 245.97 1536.6 245.97 1536.6 340.61 1510.02 340.61 1399.71 262.72 1399.71 340.61 1381.29 340.61 1381.29 245.97 1409.55 245.97 1517.76 323.86"/>
        <path class="cls-3" d="M355.26,245.97v69.3c0,2.61,5.06,7.86,8.15,7.34l101.74-.02c2.83.06,8.16-4.19,8.16-6.91v-69.72h18.42v71.39c0,11-15.16,23.94-26.14,23.26-33.52-1.59-68.88,2.04-102.18,0-10.81-.66-20.71-6.87-24.79-17.08-.41-1.02-1.77-4.96-1.77-5.76v-71.81h18.42Z"/>
        <polygon class="cls-3" points="1188.31 245.97 1188.31 263.35 1187.68 263.98 1118.4 263.98 1118.4 340.61 1099.98 340.61 1099.98 263.98 1030.49 263.98 1030.49 245.97 1188.31 245.97"/>
        <rect class="cls-3" x="1563.39" y="245.97" width="18.42" height="94.63"/>
      </g>
      <g>
        <path class="cls-6" d="M156.1,179.65h54.1v-54.1h-54.1v54.1ZM183.15,129.76c5.25,0,10.08,1.79,13.94,4.77l-13.03,13.03,4.13,4.13,13.03-13.03c2.98,3.86,4.77,8.68,4.77,13.94,0,12.62-10.23,22.84-22.84,22.84s-22.84-10.23-22.84-22.84,10.23-22.84,22.84-22.84Z"/>
        <path class="cls-6" d="M279.9,132.95c0,8.93,0,17.85,0,26.78,0,3-1.02,5.56-3.39,7.47-2,1.62-4.32,2.26-6.87,2.03-3.3-.31-5.79-1.89-7.41-4.8-.85-1.52-1.09-3.18-1.09-4.9,0-8.82,0-17.63,0-26.45v-.79h-4.64v.59c0,8.98,0,17.96,0,26.94,0,.86.03,1.74.18,2.58.55,3.28,2.09,6.04,4.68,8.15,3.29,2.68,7.09,3.66,11.28,3.08,3.43-.48,6.33-2.02,8.62-4.62,2.3-2.61,3.28-5.7,3.28-9.14v-27.6h-4.65v.67Z"/>
        <path class="cls-6" d="M244.82,151.28c-1.95-1-4.04-1.33-6.2-1.37-1.41-.03-2.71-.42-3.92-1.17-2.75-1.7-3.99-5.22-2.86-8.25,1.07-2.87,3.65-4.63,6.95-4.71,3.71-.09,6.89,2.1,7.55,5.82.07.39.09.8.13,1.21h4.6c.03-3.38-1.3-6.12-3.67-8.34-2.21-2.06-4.9-3.07-7.93-3.15-4.59-.11-8.33,1.55-10.88,5.43-1.96,2.98-2.26,6.25-1.21,9.63.68,2.16,1.97,3.92,3.77,5.32,2.02,1.57,4.29,2.47,6.85,2.64,1.48.1,2.98.1,4.38.73,4.68,2.1,5.63,7.4,3.21,10.99-1.52,2.24-3.77,3.2-6.42,3.32-3.59.16-6.69-1.91-7.78-5.25-.23-.71-.29-1.47-.43-2.2h-4.55c-.13,4.12,2.51,8.5,6.32,10.4,3.97,1.98,8,2.08,12.03.2,4.76-2.22,7.47-7.32,6.61-12.5-.67-4.02-2.94-6.89-6.54-8.75Z"/>
        <path class="cls-6" d="M310.07,135.16c-2.37-2.08-5.22-2.88-8.31-2.9-2.36-.01-4.72,0-7.09,0h0s-4.64,0-4.64,0v40.59h.03v.02h4.6v-.02h0v-18.01h.69c2.1,0,4.2,0,6.3,0,1.61,0,3.2-.18,4.72-.76,3.81-1.47,6.44-4.06,7.31-8.12.91-4.26-.33-7.89-3.62-10.78ZM302.79,150.34c-2.59.1-5.2.05-7.79.06-.12,0-.2-.04-.29-.04v-13.68h.18c2.8,0,5.61-.09,8.4.12,3.27.24,6.14,3.08,6.07,6.88-.06,3.69-2.97,6.52-6.56,6.66Z"/>
        <path class="cls-6" d="M361.78,154.05c3.82-1.47,6.44-4.06,7.31-8.12.91-4.26-.33-7.89-3.62-10.78-2.37-2.08-5.22-2.88-8.31-2.9-3.7-.02-7.41,0-11.11,0h-.62c0,13.56.03,27.08.03,40.6h4.6v-18.03h.69c1.09,0,2.17,0,3.26,0l12.03,18.06h5.39l-12.13-18.21c.84-.11,1.67-.3,2.48-.61ZM350.4,150.4c-.12,0-.2-.04-.29-.04v-13.68h.18c2.8,0,5.61-.09,8.4.12,3.27.24,6.13,3.08,6.07,6.88-.06,3.69-2.97,6.52-6.56,6.66-2.6.1-5.2.05-7.79.06Z"/>
        <polygon class="cls-6" points="469.03 165.24 447.05 132.34 442.53 132.34 442.53 172.84 447.05 172.84 447.05 139.95 469.03 172.84 473.55 172.84 473.55 132.34 469.03 132.34 469.03 165.24"/>
        <path class="cls-6" d="M318.45,132.28h0v40.55h0c7.18,0,14.32,0,21.45,0h0s.05,0,.05,0v-4.44h-.05c-5.63,0-11.22,0-16.8,0v-14.17h16.2v-4.45h-16.2v-13.05h16.79s.05,0,.05,0v-4.44h-21.5Z"/>
        <path class="cls-6" d="M397.79,136.72v-4.43h0s-25.96-.01-25.96-.01h0v4.47h10.65v36.08h4.65v-36.1h10.66v-.02Z"/>
        <path class="cls-6" d="M479.04,132.28h0v40.55h0c6.99,0,13.94,0,20.89,0h.61v-4.44h-.05c-5.63,0-11.22,0-16.8,0v-14.17h16.2v-4.45h-16.2v-13.05h16.79s.05,0,.05,0v-4.44h-21.5Z"/>
        <path class="cls-6" d="M417.64,131.69c-11.5,0-20.85,9.35-20.85,20.85s9.35,20.85,20.85,20.85,20.85-9.35,20.85-20.85-9.35-20.85-20.85-20.85ZM417.64,168.88c-9.01,0-16.34-7.33-16.34-16.34s7.33-16.34,16.34-16.34,16.34,7.33,16.34,16.34-7.33,16.34-16.34,16.34Z"/>
      </g>
    </g>
  </g>
</svg>